<?xml version="1.0" encoding="UTF-8"?>
<svg version="1.1" xmlns="http://www.w3.org/2000/svg" width="352" height="352">
<path d="M0 0 C1.13953125 0.36222656 2.2790625 0.72445313 3.453125 1.09765625 C16.82251778 5.86090609 28.376795 12.61205139 39 22 C39.63164062 22.50015625 40.26328125 23.0003125 40.9140625 23.515625 C62.31259903 40.51720197 71.60875342 68.08499178 76 94 C76.4125 92.98421875 76.825 91.9684375 77.25 90.921875 C88.7966606 63.11895495 108.94499887 42.33252647 136.66015625 30.46679688 C163.93312787 19.29439885 193.66176533 20.64763326 220.79296875 31.18359375 C222.19891546 31.78064839 223.60142701 32.38587135 225 33 C225.68271973 33.27473145 226.36543945 33.54946289 227.06884766 33.83251953 C228.98828125 34.72265625 228.98828125 34.72265625 232 37 C232.75266181 39.99151177 233.00791307 41.99962618 233 45 C233.03416016 45.73573242 233.06832031 46.47146484 233.10351562 47.22949219 C234.33597444 75.61229364 227.0494352 103.36450381 208 125 C207.33613281 125.80695313 206.67226563 126.61390625 205.98828125 127.4453125 C188.51377834 148.05295179 162.75000398 160.40697272 136 163 C125.80120999 163.68441598 115.66457359 163.39744072 105.5625 161.8125 C104.90258057 161.71179199 104.24266113 161.61108398 103.56274414 161.50732422 C96.29127107 160.18588494 90.16989913 157.56067826 83 155 C82.505 226.775 82.505 226.775 82 300 C77.05 300 72.1 300 67 300 C67 242.58 67 185.16 67 126 C61.72 127.98 56.44 129.96 51 132 C20.45909383 139.5699682 -9.72068083 136.21932462 -36.765625 119.93701172 C-60.32398312 105.19277554 -77.78634417 82.26979419 -84.52807617 55.12963867 C-86.61617698 45.70671921 -87.28890294 36.70645333 -87.1875 27.0625 C-87.18685547 25.87076172 -87.18621094 24.67902344 -87.18554688 23.45117188 C-87.13191693 12.83840221 -87.13191693 12.83840221 -86 9 C-83.80462364 7.5260062 -81.96020804 6.52472897 -79.5625 5.5 C-78.90378906 5.20593262 -78.24507812 4.91186523 -77.56640625 4.60888672 C-53.54007428 -5.69531676 -25.01695042 -7.97005986 0 0 Z " fill="#6D9E19" transform="translate(101,29)"/>
<path d="M0 0 C0.68271973 0.27473145 1.36543945 0.54946289 2.06884766 0.83251953 C3.98828125 1.72265625 3.98828125 1.72265625 7 4 C7.75266181 6.99151177 8.00791307 8.99962618 8 12 C8.03416016 12.73573242 8.06832031 13.47146484 8.10351562 14.22949219 C9.33597444 42.61229364 2.0494352 70.36450381 -17 92 C-17.66386719 92.80695313 -18.32773437 93.61390625 -19.01171875 94.4453125 C-30.9735063 108.55181981 -49.57547007 122.13837561 -68 126 C-70.29296875 125.5859375 -70.29296875 125.5859375 -72 125 C-70.02 124.67 -68.04 124.34 -66 124 C-66 123.34 -66 122.68 -66 122 C-65.26136719 121.70867187 -64.52273438 121.41734375 -63.76171875 121.1171875 C-35.22807435 109.58770984 -14.69906289 90.57151364 -2.37597656 62.17333984 C2.30482012 50.80452036 5.15438564 38.50168316 5.09765625 26.19140625 C5.09443359 24.95068359 5.09121094 23.70996094 5.08789062 22.43164062 C5.07951172 21.15482422 5.07113281 19.87800781 5.0625 18.5625 C5.05573242 16.60666992 5.05573242 16.60666992 5.04882812 14.61132812 C5.03709251 11.40750448 5.02067363 8.20377637 5 5 C3.61288818 4.54729736 3.61288818 4.54729736 2.19775391 4.08544922 C-1.17270992 2.94137515 -4.36240122 1.54640308 -7.625 0.125 C-29.51800707 -8.81775539 -55.69911496 -10.48769245 -78.25390625 -2.90625 C-81.01814169 -1.99401298 -83.11309556 -1.83018209 -86 -2 C-86 -1.34 -86 -0.68 -86 0 C-87.41601714 0.48108275 -88.83284437 0.95978141 -90.25 1.4375 C-91.03890625 1.70433594 -91.8278125 1.97117187 -92.640625 2.24609375 C-94.74821988 2.91954708 -96.84753973 3.49150595 -99 4 C-99 4.66 -99 5.32 -99 6 C-100.11375 6.495 -101.2275 6.99 -102.375 7.5 C-107.85668633 10.23599212 -112.33711312 14.0709445 -117 18 C-117.64195312 18.51820312 -118.28390625 19.03640625 -118.9453125 19.5703125 C-123.47461621 23.28718505 -127.24937062 27.50836482 -131 32 C-131 26.66498775 -126.15042674 23.10216483 -122.53564453 19.46972656 C-89.62324701 -12.02989714 -41.00551138 -18.00596704 0 0 Z " fill="#032410" transform="translate(326,62)"/>
<path d="M0 0 C1.13953125 0.36222656 2.2790625 0.72445313 3.453125 1.09765625 C16.82251778 5.86090609 28.376795 12.61205139 39 22 C39.63164062 22.50015625 40.26328125 23.0003125 40.9140625 23.515625 C61.15266812 39.59561303 71.11446691 65.907377 75.38671875 90.56640625 C75.87792326 93.83557615 75.87792326 93.83557615 76.76953125 96.21484375 C77 98 77 98 75.5625 100.25 C75.046875 100.8275 74.53125 101.405 74 102 C73.87044922 100.34677734 73.87044922 100.34677734 73.73828125 98.66015625 C71.00548991 67.74352063 58.00820873 41.11223102 34.29296875 20.796875 C11.30053563 2.77895467 -16.19553908 -3.8454457 -45 -2 C-46.33845349 -1.68786038 -47.67306701 -1.35796332 -49 -1 C-50.41534778 -0.93543121 -51.83337689 -0.91388961 -53.25 -0.9375 C-55.10625 -0.9684375 -55.10625 -0.9684375 -57 -1 C-42.52304074 -9.68617556 -15.32520956 -4.88240315 0 0 Z " fill="#1A2002" transform="translate(101,29)"/>
<path d="M0 0 C1.22912109 0.01353516 2.45824219 0.02707031 3.72460938 0.04101562 C6.71272513 0.07589635 9.69985873 0.12490302 12.6875 0.1875 C12.6875 0.5175 12.6875 0.8475 12.6875 1.1875 C10.8003125 1.24357422 10.8003125 1.24357422 8.875 1.30078125 C-3.14324817 1.73362689 -15.08029288 2.44014858 -26.578125 6.27734375 C-29.33865891 7.19620718 -31.4271638 7.35722566 -34.3125 7.1875 C-34.3125 7.8475 -34.3125 8.5075 -34.3125 9.1875 C-35.72851714 9.66858275 -37.14534437 10.14728141 -38.5625 10.625 C-39.35140625 10.89183594 -40.1403125 11.15867187 -40.953125 11.43359375 C-43.06071988 12.10704708 -45.16003973 12.67900595 -47.3125 13.1875 C-47.3125 13.8475 -47.3125 14.5075 -47.3125 15.1875 C-48.42625 15.6825 -49.54 16.1775 -50.6875 16.6875 C-56.16918633 19.42349212 -60.64961312 23.2584445 -65.3125 27.1875 C-65.95445312 27.70570312 -66.59640625 28.22390625 -67.2578125 28.7578125 C-71.78711621 32.47468505 -75.56187062 36.69586482 -79.3125 41.1875 C-79.3125 35.85248775 -74.46292674 32.28966483 -70.84814453 28.65722656 C-51.8145262 10.4406316 -26.33184884 -0.56147737 0 0 Z " fill="#101C06" transform="translate(274.3125,52.8125)"/>
<path d="M0 0 C0.66 0.33 1.32 0.66 2 1 C-7.01363569 13.46002581 -24.52373498 21.80730653 -39 26 C-41.375 25.625 -41.375 25.625 -43 25 C-41.02 24.67 -39.04 24.34 -37 24 C-37 23.34 -37 22.68 -37 22 C-36.26136719 21.70867187 -35.52273438 21.41734375 -34.76171875 21.1171875 C-22.28633572 16.07630846 -9.36953316 9.95512898 0 0 Z " fill="#0F3512" transform="translate(297,162)"/>
<path d="M0 0 C1.80307617 0.00483398 1.80307617 0.00483398 3.64257812 0.00976562 C4.88845703 0.01814453 6.13433594 0.02652344 7.41796875 0.03515625 C8.68318359 0.03966797 9.94839844 0.04417969 11.25195312 0.04882812 C14.36983985 0.06059374 17.48763008 0.07703353 20.60546875 0.09765625 C20.60546875 0.42765625 20.60546875 0.75765625 20.60546875 1.09765625 C19.34734375 1.13503906 18.08921875 1.17242187 16.79296875 1.2109375 C4.77472058 1.64378314 -7.16232413 2.35030483 -18.66015625 6.1875 C-21.42069016 7.10636343 -23.50919505 7.26738191 -26.39453125 7.09765625 C-26.39453125 7.75765625 -26.39453125 8.41765625 -26.39453125 9.09765625 C-27.38453125 8.76765625 -28.37453125 8.43765625 -29.39453125 8.09765625 C-28.73453125 8.09765625 -28.07453125 8.09765625 -27.39453125 8.09765625 C-27.39453125 7.43765625 -27.39453125 6.77765625 -27.39453125 6.09765625 C-24.83301442 5.28194407 -22.27040497 4.46999494 -19.70703125 3.66015625 C-18.98580078 3.43005859 -18.26457031 3.19996094 -17.52148438 2.96289062 C-16.81572266 2.74052734 -16.10996094 2.51816406 -15.3828125 2.2890625 C-14.73868408 2.08482666 -14.09455566 1.88059082 -13.4309082 1.67016602 C-8.87833136 0.39024842 -4.73327297 -0.02243257 0 0 Z " fill="#143610" transform="translate(266.39453125,52.90234375)"/>
<path d="M0 0 C0.66 0.33 1.32 0.66 2 1 C-1.07511125 4.13318279 -4.16144839 7.25506978 -7.25 10.375 C-8.55904297 11.70917969 -8.55904297 11.70917969 -9.89453125 13.0703125 C-10.73886719 13.92109375 -11.58320313 14.771875 -12.453125 15.6484375 C-13.22817383 16.43395996 -14.00322266 17.21948242 -14.80175781 18.02880859 C-16.81723515 19.83611246 -18.52453574 20.94965361 -21 22 C-19.67281894 18.96179631 -18.35354473 17.2222523 -15.75 15.1875 C-13.19999256 13.09681067 -11.03431836 10.98245105 -8.9375 8.4375 C-6.24179484 5.16777676 -3.32942713 2.61597846 0 0 Z " fill="#487818" transform="translate(212,76)"/>
<path d="M0 0 C0 3 0 3 -1.53125 4.82421875 C-2.1809375 5.43910156 -2.830625 6.05398437 -3.5 6.6875 C-4.1496875 7.31011719 -4.799375 7.93273437 -5.46875 8.57421875 C-5.9740625 9.04472656 -6.479375 9.51523438 -7 10 C-7.66 9.67 -8.32 9.34 -9 9 C-6.21000549 5.51250686 -3.74764169 2.49842779 0 0 Z " fill="#031508" transform="translate(306,155)"/>
<path d="M0 0 C1.875 0.5625 1.875 0.5625 4 2 C5.25 5.625 5.25 5.625 6 9 C2.91910327 6.22719294 1.31224548 3.93673644 0 0 Z " fill="#565800" transform="translate(29,112)"/>
</svg>
