<?xml version="1.0" encoding="UTF-8"?>
<svg version="1.1" xmlns="http://www.w3.org/2000/svg" width="512" height="512">
<path d="M0 0 C24.0654277 19.84542379 35.42279525 46.63972647 38.9609375 77.109375 C39.45400391 75.74619141 39.45400391 75.74619141 39.95703125 74.35546875 C50.44417089 46.27152014 69.75190556 24.95188619 96.97607422 12.12402344 C123.45692547 0.25486944 153.33986476 0.01248999 180.4921875 9.73046875 C191.85208933 14.24628558 191.85208933 14.24628558 194.9609375 17.109375 C201.09859052 41.81497832 192.77641805 70.80251368 180.25390625 92.05029297 C164.70623114 116.81031786 140.28094207 133.47007155 111.94921875 140.07421875 C98.01597907 143.04524096 83.77531761 143.12390204 69.7109375 140.984375 C69.06390869 140.8920459 68.41687988 140.7997168 67.75024414 140.70458984 C59.67082687 139.27304501 52.85186871 136.0684742 44.9609375 133.109375 C44.9609375 181.289375 44.9609375 229.469375 44.9609375 279.109375 C40.3409375 279.109375 35.7209375 279.109375 30.9609375 279.109375 C30.6309375 221.689375 30.3009375 164.269375 29.9609375 105.109375 C24.6809375 107.089375 19.4009375 109.069375 13.9609375 111.109375 C-16.34713421 118.55796889 -45.96593353 115.20456354 -72.8046875 99.04638672 C-96.36594065 84.30033866 -113.8184106 61.38097498 -120.56713867 34.2409668 C-122.61597873 24.98673887 -123.33039767 16.14273526 -123.2265625 6.671875 C-123.22591797 5.52783203 -123.22527344 4.38378906 -123.22460938 3.20507812 C-123.17077458 -7.02951425 -123.17077458 -7.02951425 -122.0390625 -10.890625 C-119.84368614 -12.3646188 -117.99927054 -13.36589603 -115.6015625 -14.390625 C-114.94285156 -14.68469238 -114.28414062 -14.97875977 -113.60546875 -15.28173828 C-75.28914581 -31.71450831 -32.35994119 -25.7666979 0 0 Z " fill="#6EA019" transform="translate(218.0390625,157.890625)"/>
</svg>
