<?xml version="1.0" encoding="UTF-8"?>
<svg version="1.1" xmlns="http://www.w3.org/2000/svg" width="512" height="512">
<path d="M0 0 C29.29884429 25.29680991 47.34930284 63.51961835 50.44140625 101.875 C52.957112 148.13481821 38.03254861 188.06388405 7.62109375 222.6796875 C-22.06439318 252.57797362 -61.55408276 268.98042613 -103.55859375 269.25 C-144.79656639 268.98534557 -184.17229991 253.05213873 -213.55859375 223.875 C-244.29972583 190.23518864 -259.36633078 150.57070409 -257.72705078 104.97265625 C-255.6916179 67.54429051 -238.7197287 28.78187916 -210.82177734 3.2878418 C-149.08582174 -51.36304142 -63.39952448 -52.65548293 0 0 Z " fill="#93C0FE" transform="translate(359.55859375,141.125)"/>
<path d="M0 0 C29.29884429 25.29680991 47.34930284 63.51961835 50.44140625 101.875 C52.957112 148.13481821 38.03254861 188.06388405 7.62109375 222.6796875 C-22.06439318 252.57797362 -61.55408276 268.98042613 -103.55859375 269.25 C-144.79656639 268.98534557 -184.17229991 253.05213873 -213.55859375 223.875 C-244.29972583 190.23518864 -259.36633078 150.57070409 -257.72705078 104.97265625 C-255.6916179 67.54429051 -238.7197287 28.78187916 -210.82177734 3.2878418 C-149.08582174 -51.36304142 -63.39952448 -52.65548293 0 0 Z M-161.55859375 -10.125 C-162.53183594 -9.68542969 -163.50507813 -9.24585938 -164.5078125 -8.79296875 C-191.34930912 3.94358455 -213.33922761 26.43626772 -226.55859375 52.875 C-227.07292969 53.90367187 -227.58726562 54.93234375 -228.1171875 55.9921875 C-231.70256863 63.44906496 -234.3200641 70.92022498 -236.55859375 78.875 C-236.84734375 79.77734375 -237.13609375 80.6796875 -237.43359375 81.609375 C-244.94049056 106.00678963 -237.36099997 132.09241035 -225.921875 154.046875 C-221.24474166 162.7832724 -221.24474166 162.7832724 -215.55859375 170.875 C-216.32171875 170.978125 -217.08484375 171.08125 -217.87109375 171.1875 C-220.85599897 171.95108041 -221.91533801 172.28038567 -223.55859375 174.875 C-224.18423849 179.09810199 -224.00057127 181.1586916 -221.74609375 184.8125 C-217.11175627 187.81118896 -212.93043423 187.29834995 -207.55859375 186.875 C-207.64560547 187.97908203 -207.64560547 187.97908203 -207.734375 189.10546875 C-208.08016522 195.44673312 -208.08016522 195.44673312 -205.43359375 201.0625 C-202.0087515 203.22163968 -200.52487534 203.70130866 -196.55859375 202.875 C-193.68218759 200.49999209 -193.68218759 200.49999209 -191.55859375 197.875 C-187.9621995 199.50582317 -184.94209369 201.69244784 -181.74609375 204 C-151.88847478 224.94186105 -115.06780442 232.6645484 -78.99609375 226.8125 C-43.22865531 220.18489392 -10.17767011 198.11371489 10.36376953 168.28100586 C15.10227186 161.13278002 18.97623228 153.7094688 22.44140625 145.875 C22.7544873 145.18889648 23.06756836 144.50279297 23.39013672 143.79589844 C34.52873054 119.07768768 36.1297053 94.10785555 26.60253906 68.63183594 C24.72551401 63.95924167 22.61568155 59.41569585 20.44140625 54.875 C20.03148437 53.96492188 19.6215625 53.05484375 19.19921875 52.1171875 C5.19794045 22.08685956 -23.59458981 -2.63088247 -54.390625 -13.984375 C-58.74202397 -15.49614133 -63.13648286 -16.83739517 -67.55859375 -18.125 C-69.16927734 -18.61613281 -69.16927734 -18.61613281 -70.8125 -19.1171875 C-81.00534372 -22.09423504 -91.08618376 -22.31148421 -101.62255859 -22.31030273 C-103.7902413 -22.31248155 -105.95740733 -22.33067307 -108.125 -22.34960938 C-127.22491421 -22.42903398 -144.24465747 -18.01219669 -161.55859375 -10.125 Z " fill="#0E65E5" transform="translate(359.55859375,141.125)"/>
<path d="M0 0 C0.96309082 0.00563965 1.92618164 0.0112793 2.91845703 0.01708984 C15.97615179 0.2396016 24.67683829 2.71778916 33.875 12.125 C40.2651078 21.17765272 41.20414882 29.45426034 40.125 40.3125 C38.18366087 48.39949851 32.5998473 54.32251511 26.4375 59.625 C17.89806815 63.9752766 9.43952207 64.58387608 0 64.625 C-0.9178125 64.63047852 -1.835625 64.63595703 -2.78125 64.64160156 C-14.27285816 64.5222403 -22.77061018 62.5651145 -31.5625 55 C-37.87180568 47.66756367 -41.41961472 40.29845182 -41.12890625 30.453125 C-40.00610601 20.98705526 -36.00355075 13.63098816 -28.875 7.3125 C-20.21497918 0.60921767 -10.65737801 -0.0654745 0 0 Z " fill="#0E65E5" transform="translate(471.875,223.6875)"/>
<path d="M0 0 C0.9178125 -0.00547852 1.835625 -0.01095703 2.78125 -0.01660156 C14.27285816 0.1027597 22.77061018 2.0598855 31.5625 9.625 C37.87180568 16.95743633 41.41961472 24.32654818 41.12890625 34.171875 C40.00610601 43.63794474 36.00355075 50.99401184 28.875 57.3125 C20.21497918 64.01578233 10.65737801 64.6904745 0 64.625 C-0.96309082 64.61936035 -1.92618164 64.6137207 -2.91845703 64.60791016 C-15.97615179 64.3853984 -24.67683829 61.90721084 -33.875 52.5 C-40.2651078 43.44734728 -41.20414882 35.17073966 -40.125 24.3125 C-38.18366087 16.22550149 -32.5998473 10.30248489 -26.4375 5 C-17.89806815 0.6497234 -9.43952207 0.04112392 0 0 Z " fill="#0E65E5" transform="translate(40.125,223.6875)"/>
<path d="M0 0 C8.86841084 7.01223182 13.13054578 14.0175448 14.6875 25.125 C14.96460048 28.75577778 15.02236502 32.3596141 15 36 C14.99436035 36.96309082 14.9887207 37.92618164 14.98291016 38.91845703 C14.7603984 51.97615179 12.28221084 60.67683829 2.875 69.875 C-6.17765272 76.2651078 -14.45426034 77.20414882 -25.3125 76.125 C-33.39949851 74.18366087 -39.32251511 68.5998473 -44.625 62.4375 C-48.9752766 53.89806815 -49.58387608 45.43952207 -49.625 36 C-49.63047852 35.0821875 -49.63595703 34.164375 -49.64160156 33.21875 C-49.5222403 21.72714184 -47.5651145 13.22938982 -40 4.4375 C-27.99409407 -5.89316324 -14.07267604 -7.96566568 0 0 Z " fill="#0E65E5" transform="translate(273.3125,435.875)"/>
<path d="M0 0 C9.0807246 6.13856983 14.31224751 13.00164755 16.56494141 23.79589844 C17.25445495 28.27990477 17.2408298 32.73009454 17.203125 37.2578125 C17.21472656 38.64516602 17.21472656 38.64516602 17.2265625 40.06054688 C17.19413064 51.63061284 15.25574872 60.15780386 7.640625 69.0078125 C0.30818867 75.31711818 -7.06092318 78.86492722 -16.90625 78.57421875 C-26.37231974 77.45141851 -33.72838684 73.44886325 -40.046875 66.3203125 C-46.75015733 57.66029168 -47.4248495 48.10269051 -47.359375 37.4453125 C-47.35373535 36.48222168 -47.3480957 35.51913086 -47.34228516 34.52685547 C-47.1197734 21.46916071 -44.64158584 12.76847421 -35.234375 3.5703125 C-25.16855457 -3.53497251 -11.36418558 -6.20258984 0 0 Z " fill="#0E65E5" transform="translate(271.046875,2.6796875)"/>
<path d="M0 0 C0.88171875 0.52207031 0.88171875 0.52207031 1.78125 1.0546875 C2.6475 1.4465625 3.51375 1.8384375 4.40625 2.2421875 C11.32447637 7.52188658 15.34681966 14.53775738 16.78125 23.0546875 C18.53593252 38.16689074 10.20747663 51.98527533 1.49169922 63.80322266 C-3.96618544 70.60522881 -11.30404157 74.62740237 -19.90625 75.8046875 C-29.71459313 76.57482407 -37.36336341 73.92584149 -45.21875 68.0546875 C-51.64291265 62.54038479 -54.62183654 55.11626997 -55.6015625 46.80859375 C-56.13086886 31.82922383 -47.09410062 16.07101488 -37.21875 5.0546875 C-35.0703125 3.32421875 -35.0703125 3.32421875 -32.84375 1.8671875 C-32.11414063 1.37863281 -31.38453125 0.89007813 -30.6328125 0.38671875 C-21.43530912 -4.68827907 -9.28158358 -5.02175231 0 0 Z " fill="#0E65E5" transform="translate(383.21875,32.9453125)"/>
<path d="M0 0 C7.59211271 4.58394991 11.99637056 9.30953487 16.38256836 17.03759766 C16.88530273 17.88064453 17.38803711 18.72369141 17.90600586 19.59228516 C24.35701828 30.63668863 28.3236816 40.35627966 25.47241211 53.27978516 C22.53215953 62.4696655 17.74040205 68.17070094 9.25756836 72.72509766 C0.52083036 76.71313602 -6.67186169 77.0507253 -15.86743164 74.28759766 C-24.32182603 71.01396004 -29.94134249 66.02999579 -34.36743164 58.22509766 C-34.74834961 57.57114014 -35.12926758 56.91718262 -35.52172852 56.2434082 C-48.38664779 33.91149205 -48.38664779 33.91149205 -45.18383789 20.40478516 C-42.2266381 11.59453847 -38.04151631 5.0913231 -29.99243164 0.29541016 C-20.92817107 -4.00344872 -8.99032957 -5.06551903 0 0 Z " fill="#0F65E5" transform="translate(157.867431640625,32.71240234375)"/>
<path d="M0 0 C7.94896592 4.19149841 13.23213239 10.59293055 16.109375 19.11328125 C17.70283041 28.02716549 17.61636435 37.14157667 13.0859375 45.109375 C9.02496721 50.78470632 5.48069722 54.39548366 -0.55859375 57.8203125 C-1.21255127 58.20123047 -1.86650879 58.58214844 -2.5402832 58.97460938 C-13.85659842 65.49368641 -23.13832932 70.72556195 -36.49609375 69.3203125 C-46.32652511 66.46593424 -53.0459139 62.20110446 -58.41796875 53.48046875 C-62.38628749 45.5294533 -63.00527457 36.23698729 -60.80859375 27.625 C-56.80615852 18.05250906 -50.64320596 12.12002483 -41.74609375 7.0703125 C-40.90304688 6.56757813 -40.06 6.06484375 -39.19140625 5.546875 C-26.34278583 -1.95797668 -14.46626611 -6.02234659 0 0 Z " fill="#0F65E5" transform="translate(91.49609375,330.6796875)"/>
<path d="M0 0 C4.98006455 3.12354085 9.63059377 6.37577956 12.66796875 11.53515625 C13.0546875 12.17453125 13.44140625 12.81390625 13.83984375 13.47265625 C18.03453436 21.49728176 18.18462351 30.73281559 16.265625 39.5234375 C13.31936137 47.65411352 8.36858149 53.5437722 0.66796875 57.47265625 C-7.6240652 61.27102584 -17.14025866 62.37508739 -25.89453125 59.16015625 C-50.88332561 47.55970096 -50.88332561 47.55970096 -56.83203125 37.59765625 C-57.21875 36.96988281 -57.60546875 36.34210938 -58.00390625 35.6953125 C-61.9628878 27.76300527 -62.71144394 18.29027399 -60.2890625 9.734375 C-59.33930138 7.56921076 -58.28697554 5.56711028 -57.08203125 3.53515625 C-56.66953125 2.64828125 -56.25703125 1.76140625 -55.83203125 0.84765625 C-40.46572449 -19.45782054 -17.78758461 -10.68249954 0 0 Z " fill="#0E65E5" transform="translate(91.08203125,123.46484375)"/>
<path d="M0 0 C5.67533132 4.06097029 9.28610866 7.60524028 12.7109375 13.64453125 C13.09185547 14.29848877 13.47277344 14.95244629 13.86523438 15.6262207 C26.73015365 37.95813686 26.73015365 37.95813686 23.52734375 51.46484375 C20.57014396 60.27509044 16.38502217 66.7783058 8.3359375 71.57421875 C0.3011647 75.38482791 -8.83424072 76.10094231 -17.484375 73.89453125 C-27.05686594 69.89209602 -32.98935017 63.72914346 -38.0390625 54.83203125 C-38.79316406 53.56746094 -38.79316406 53.56746094 -39.5625 52.27734375 C-46.01351242 41.23294028 -49.98017574 31.51334925 -47.12890625 18.58984375 C-44.08361218 9.07165189 -38.68539601 3.09431968 -29.90234375 -1.5078125 C-20.72921584 -5.45853117 -8.61025174 -4.89572075 0 0 Z " fill="#0E65E5" transform="translate(375.7890625,407.41796875)"/>
<path d="M0 0 C8.17579203 4.94657435 12.881308 11.09469876 15.78515625 20.234375 C18.85669229 36.6056621 10.71464189 49.12142336 2.17578125 62.31640625 C-0.31503528 65.75201526 -2.65130175 68.18219916 -6.19921875 70.50390625 C-6.92882812 70.99246094 -7.6584375 71.48101562 -8.41015625 71.984375 C-16.25458115 76.31277126 -26.02203251 76.95914517 -34.625 74.5234375 C-36.79016424 73.57367638 -38.79226472 72.52135054 -40.82421875 71.31640625 C-41.71109375 70.90390625 -42.59796875 70.49140625 -43.51171875 70.06640625 C-50.94301715 64.44272097 -54.94708575 55.64429431 -56.20703125 46.5546875 C-56.85621802 31.38535653 -46.814463 15.23672139 -36.82421875 4.31640625 C-34.76171875 2.70703125 -34.76171875 2.70703125 -32.82421875 1.56640625 C-32.18484375 1.1796875 -31.54546875 0.79296875 -30.88671875 0.39453125 C-21.6935468 -4.41099045 -9.42169347 -4.54458156 0 0 Z " fill="#0E65E5" transform="translate(167.82421875,406.68359375)"/>
<path d="M0 0 C3.49023993 2.571986 6.50647351 5.18036146 8.75 8.9375 C9.33007812 9.87916016 9.33007812 9.87916016 9.921875 10.83984375 C13.82456475 18.65936343 14.47234429 27.50953385 12.20703125 35.95703125 C11.25601963 38.38739429 10.20005277 40.684031 9 43 C8.5875 43.9075 8.175 44.815 7.75 45.75 C2.29546396 52.76297491 -6.17126661 57.23532012 -14.91796875 58.3828125 C-30.57681253 58.99052959 -46.67795617 49.35775816 -58 39 C-59.609375 36.9375 -59.609375 36.9375 -60.75 35 C-61.33007812 34.0409375 -61.33007812 34.0409375 -61.921875 33.0625 C-66.11656561 25.03787449 -66.26665476 15.80234066 -64.34765625 7.01171875 C-61.41322815 -1.08629528 -56.46734968 -6.9917012 -48.8125 -10.9375 C-30.80797057 -19.30180895 -15.0309927 -9.96004267 0 0 Z " fill="#0F65E5" transform="translate(469,342)"/>
<path d="M0 0 C5.77228962 4.67224262 8.63753579 11.29535664 10.625 18.3125 C11.81071638 30.07315198 9.5358381 38.01786326 2.48486328 47.28369141 C-0.83311422 50.90306565 -4.88707844 53.15719317 -9.125 55.5625 C-9.96804688 56.06523437 -10.81109375 56.56796875 -11.6796875 57.0859375 C-22.89243549 63.6352796 -33.05875819 67.71393921 -46.2109375 64.65234375 C-55.17340014 61.46722241 -61.09615297 55.76331653 -65.46484375 47.42578125 C-68.64762109 40.03572742 -68.79427954 29.92957533 -66.43359375 22.25 C-62.62908053 14.42629883 -57.80682071 9.06246343 -50.3125 4.8125 C-49.65854248 4.43158203 -49.00458496 4.05066406 -48.33081055 3.65820312 C-31.77290046 -5.88043992 -17.40613061 -11.72382906 0 0 Z " fill="#0E65E5" transform="translate(471.375,118.6875)"/>
<path d="M0 0 C2.60683617 1.38741614 4.85254984 2.75864165 7.25 4.4375 C25.68774501 16.62212109 43.65007502 23.17360506 65.8125 23.1875 C67.33713867 23.20586914 67.33713867 23.20586914 68.89257812 23.22460938 C90.23647481 23.26541988 111.16001388 14.50145059 127.75390625 1.25 C130.68282389 -0.38000634 132.69531657 -0.32468626 136 0 C138.875 1.5625 138.875 1.5625 141 4 C141.625 7.4375 141.625 7.4375 141 11 C127.21326564 26.80368254 102.24881204 36.65108689 82 40 C65.63290228 40.89542302 48.62408429 41.45737874 33 36 C31.14568359 35.36384766 31.14568359 35.36384766 29.25390625 34.71484375 C-5.45691137 22.08617727 -5.45691137 22.08617727 -11 11 C-11.35519903 7.16385043 -11.54724594 4.85370366 -9.4375 1.5625 C-6.04017119 -0.61527488 -4.00066995 -0.3947218 0 0 Z " fill="#1066E5" transform="translate(191,282)"/>
<path d="M0 0 C21.21768536 5.42790905 40.27520718 16.97595552 56 32 C56.58910156 32.5259375 57.17820312 33.051875 57.78515625 33.59375 C69.43497395 44.38979856 83.46245926 63.48002538 85.4375 79.5625 C85 83 85 83 82.875 85.4375 C79.46537255 87.29055839 77.81804737 87.71588388 74 87 C69.62440794 83.31639455 67.4639437 79.44682744 65.125 74.375 C59.30493261 62.34403655 52.37700179 52.50741906 43 43 C42.20722656 42.19433594 41.41445313 41.38867188 40.59765625 40.55859375 C27.28455612 27.82143472 10.3774523 20.61995964 -7.29296875 16.15234375 C-10.66815988 14.71557408 -12.01955589 13.0518319 -14 10 C-14.58122986 6.43996708 -14.43296709 4.74785225 -12.625 1.625 C-8.36149033 -1.01431551 -4.88394092 -0.78675628 0 0 Z " fill="#FCFDFF" transform="translate(285,138)"/>
<path d="M0 0 C1.74410156 -0.01740234 1.74410156 -0.01740234 3.5234375 -0.03515625 C14.19332084 0.00146806 14.19332084 0.00146806 19 3.375 C23.23461468 8.06741086 24.3041306 10.8779599 24.21484375 17.05859375 C23.77919627 21.7556657 21.8969321 24.54533781 18.5 27.6875 C12.92114889 31.4532245 6.74536775 30.63443327 0.25 30.6875 C-1.50183594 30.73100586 -1.50183594 30.73100586 -3.2890625 30.77539062 C-10.08948003 30.82550708 -14.54731609 30.59083721 -20 26.375 C-23.07121542 23.14214167 -23.93873751 19.80383743 -24.5625 15.4375 C-24.29579744 10.71042697 -22.24442718 6.77787595 -19 3.375 C-13.26156558 -0.76311195 -6.77291336 -0.06757896 0 0 Z " fill="#5B9DFE" transform="translate(40,240.625)"/>
<path d="M0 0 C4.688295 2.65326585 6.96782167 4.87714766 8.8203125 10.08203125 C9.2527607 14.42151577 9.23879199 18.7244204 9.1953125 23.08203125 C9.20691406 24.24476562 9.21851563 25.4075 9.23046875 26.60546875 C9.1938841 37.26379621 9.1938841 37.26379621 5.8203125 42.08203125 C1.11700845 46.43258749 -2.65136437 47.43824794 -8.89453125 47.3671875 C-13.35289743 46.81084437 -16.12002257 44.28785686 -18.9921875 41.01953125 C-22.27447755 35.66421591 -21.44261235 29.40002992 -21.4921875 23.33203125 C-21.52119141 22.16414063 -21.55019531 20.99625 -21.58007812 19.79296875 C-21.63019458 12.99255122 -21.39552471 8.53471516 -17.1796875 3.08203125 C-12.44571259 -1.41524491 -5.99580377 -2.52511449 0 0 Z " fill="#5B9DFE" transform="translate(262.1796875,16.91796875)"/>
<path d="M0 0 C3.3125 1.6875 3.3125 1.6875 6 4 C6.78375 4.66 7.5675 5.32 8.375 6 C11.16280545 11.14671774 11.29554316 15.30674151 10 21 C5.58057104 31.20162132 0.29635915 39.80242723 -9 46 C-15.12684136 46.61268414 -19.16163687 45.90743757 -24 42 C-27.10690111 38.73377063 -28.39109408 35.72472781 -28.9375 31.3125 C-28.64565491 22.11303518 -21.78128767 10.80983268 -15.36425781 4.35449219 C-10.27327773 0.03721729 -6.54971955 -0.79524419 0 0 Z " fill="#92BFFE" transform="translate(157,420)"/>
<path d="M0 0 C4.50819562 2.04917983 7.1025503 4.72127581 9.296875 9.08203125 C10.55307906 12.50867678 10.87368747 15.49808182 10 19 C6.43517088 25.55508583 1.253733 29.40068105 -5.125 33 C-6.38425293 33.71434204 -6.38425293 33.71434204 -7.66894531 34.44311523 C-13.26330115 37.44822782 -18.05809355 39.4503053 -24.5390625 38.76953125 C-29.42357026 37.24215343 -32.55415098 34.41300478 -35.15625 30.0703125 C-36.64910308 26.40729336 -36.51553252 22.88006054 -36 19 C-33.22947665 12.70335602 -27.63505466 9.54770343 -22 6 C-21.10539062 5.41347656 -20.21078125 4.82695312 -19.2890625 4.22265625 C-12.87747674 0.31875375 -7.50222835 -1.37820489 0 0 Z " fill="#92BFFE" transform="translate(456,129)"/>
<path d="M0 0 C3.43115859 1.4354404 6.64566377 3.15932181 9.875 5 C11.08760498 5.68461304 11.08760498 5.68461304 12.32470703 6.38305664 C17.75929384 9.6817821 21.8674293 13.40321785 25 19 C26.03472611 24.7944662 24.2738369 29.26884385 21 34 C17.75626391 37.16462058 14.7395379 38.38240701 10.3125 38.9375 C1.11303518 38.64565491 -10.19016732 31.78128767 -16.64550781 25.36425781 C-20.45346792 20.87386758 -21.3551104 18.06828509 -21.28125 12.31640625 C-20.8457205 8.72933686 -19.32521979 6.70228246 -17 4 C-16.34 3.21625 -15.68 2.4325 -15 1.625 C-9.84912628 -1.1650566 -5.69909783 -1.28170087 0 0 Z " fill="#D4E7FE" transform="translate(441,345)"/>
<path d="M0 0 C1.14597656 -0.01546875 2.29195313 -0.0309375 3.47265625 -0.046875 C10.47438498 -0.0146461 15.21770104 0.65403018 21.125 4.5 C24.4249034 8.36910948 25.87402412 12.2417201 25.5703125 17.4453125 C24.72225261 21.35829057 22.96524177 24.68472738 20.125 27.5 C13.74230642 31.29135477 7.33385918 30.98215938 0.0625 30.9375 C-1.09572266 30.95748047 -2.25394531 30.97746094 -3.44726562 30.99804688 C-9.86686216 30.99435957 -14.04248998 30.90659388 -18.875 26.5 C-22.62476591 22.233025 -23.23304062 18.30450272 -23.15234375 12.78125 C-22.58056399 8.07816014 -19.90275328 5.43696841 -16.53125 2.36328125 C-11.60958395 -0.81094554 -5.63601373 -0.07556666 0 0 Z " fill="#5B9DFE" transform="translate(470.875,240.5)"/>
<path d="M0 0 C4.30605765 1.45968056 7.31732626 3.30025942 10.5 6.5625 C12.77826773 11.78353021 13.3639187 15.39976237 12 21 C7.86922441 30.40865285 2.56772749 41.21613626 -7 46 C-11.73981526 46.57825746 -15.11997823 46.47260429 -19.375 44.1875 C-24.07620096 40.26983253 -26.07856392 37.74040588 -26.75 31.5 C-26.7161389 25.1764389 -24.06249563 20.54326805 -21 15.1875 C-20.54334961 14.37539063 -20.08669922 13.56328125 -19.61621094 12.7265625 C-15.17921931 5.36291542 -9.31708332 -1.66376488 0 0 Z " fill="#92BFFE" transform="translate(371,46)"/>
<path d="M0 0 C5.35755096 1.92063148 8.45837216 4.91674432 11 10 C11.29909218 14.20214202 11.27820421 18.41347718 11.3125 22.625 C11.34150391 23.78902344 11.37050781 24.95304687 11.40039062 26.15234375 C11.45274079 33.26391198 10.94070902 38.00786643 7 44 C3.12826394 47.29837935 -0.73951585 48.74915277 -5.9453125 48.4453125 C-9.85829057 47.59725261 -13.18472738 45.84024177 -16 43 C-19.79135477 36.61730642 -19.48215938 30.20885918 -19.4375 22.9375 C-19.45748047 21.77927734 -19.47746094 20.62105469 -19.49804688 19.42773438 C-19.49435611 13.0021075 -19.41750934 8.82862791 -15 4 C-10.21212087 -0.231149 -6.14411195 -0.90451917 0 0 Z " fill="#5B9DFE" transform="translate(260,448)"/>
<path d="M0 0 C4.55997161 2.65307439 6.64942058 5.59281904 9.4375 10 C10.14777344 11.0725 10.85804688 12.145 11.58984375 13.25 C16.0445055 20.2465709 19.31247533 26.49158923 17.4375 35 C15.27727038 39.95052621 12.33481077 42.1929014 7.51171875 44.296875 C4.15135391 45.43598173 1.95099831 45.62741041 -1.5625 45 C-8.09573737 41.34328666 -11.94223757 36.29084916 -15.5625 29.875 C-16.27684204 28.61574707 -16.27684204 28.61574707 -17.00561523 27.33105469 C-20.01072782 21.73669885 -22.0128053 16.94190645 -21.33203125 10.4609375 C-19.80004729 5.56169945 -16.9619914 2.39461633 -12.56640625 -0.16015625 C-8.28120445 -1.95609852 -4.35470739 -1.222374 0 0 Z " fill="#92BFFE" transform="translate(365.5625,421)"/>
<path d="M0 0 C3.31567661 2.91377641 6.74612426 6.21925623 7.30078125 10.765625 C7.48094137 16.34110661 6.96638517 19.52774798 3.0625 23.8125 C0.1917145 26.040136 -2.82931915 27.93504294 -5.9375 29.8125 C-6.82953125 30.36550781 -7.7215625 30.91851562 -8.640625 31.48828125 C-15.61465853 35.76038658 -20.66333963 37.70316625 -28.9375 36.8125 C-33.8723827 34.6192188 -36.11833562 31.70443109 -38.2421875 26.89453125 C-39.75769489 22.35652317 -39.5406131 19.12838312 -37.5625 14.8125 C-33.87128173 10.59396483 -29.66045865 7.78596833 -24.9375 4.8125 C-24.04289062 4.22597656 -23.14828125 3.63945312 -22.2265625 3.03515625 C-14.98925277 -1.37151515 -8.12854404 -3.28600717 0 0 Z " fill="#D4E7FE" transform="translate(84.9375,346.1875)"/>
<path d="M0 0 C2.60022028 1.24843645 5.04814185 2.62988076 7.51953125 4.1171875 C8.48761719 4.68308594 9.45570312 5.24898437 10.453125 5.83203125 C15.97815298 9.18520228 20.5432081 12.1645412 23.51953125 18.1171875 C24.09778871 22.85700276 23.99213554 26.23716573 21.70703125 30.4921875 C17.78936378 35.19338846 15.25993713 37.19575142 9.01953125 37.8671875 C2.62233804 37.85860066 -2.03182394 35.06273754 -7.41796875 31.9296875 C-8.24683594 31.44790039 -9.07570313 30.96611328 -9.9296875 30.46972656 C-15.52688823 27.05607432 -18.84025791 23.57750375 -22.48046875 18.1171875 C-23.09246778 11.99719725 -22.39324827 7.94702472 -18.48046875 3.1171875 C-13.05656103 -1.91929824 -6.84132126 -2.43486395 0 0 Z " fill="#92BFFE" transform="translate(68.48046875,129.8828125)"/>
<path d="M0 0 C6.58542106 3.57385128 10.39905984 8.78003818 14 15.1875 C14.47840332 16.02812988 14.95680664 16.86875977 15.44970703 17.73486328 C18.73141077 23.80373543 20.8714315 29.06925025 19 36 C17.08608084 40.7344316 13.54631214 43.72684393 9 46 C4.52037071 46.54651477 0.95350512 46.43001211 -3.1875 44.5625 C-6.94830444 41.13598928 -9.38211216 37.33398399 -12 33 C-12.55300781 32.10796875 -13.10601562 31.2159375 -13.67578125 30.296875 C-17.94379976 23.32951303 -19.90301747 18.26905993 -19 10 C-16.92237851 5.51233759 -14.27371173 2.89492744 -9.91796875 0.703125 C-6.4912081 -0.55312127 -3.50206105 -0.87330144 0 0 Z " fill="#D4E7FE" transform="translate(148,46)"/>
<path d="M0 0 C3.1850357 1.76015131 3.83296972 2.49890916 5 6 C5.06802967 7.72795352 5.08495645 9.45835365 5.0625 11.1875 C5.05347656 12.08855469 5.04445312 12.98960937 5.03515625 13.91796875 C5.02355469 14.60503906 5.01195312 15.29210937 5 16 C6.10408203 15.91298828 6.10408203 15.91298828 7.23046875 15.82421875 C15.1846819 15.4564546 15.1846819 15.4564546 19.1875 18.125 C21.34663968 21.54984225 21.82630866 23.03371841 21 27 C19.1875 29.875 19.1875 29.875 16 32 C12.2947699 32.41111401 8.71118727 32.29247535 5 32 C5.02320313 32.59167969 5.04640625 33.18335938 5.0703125 33.79296875 C5.25947642 42.07564621 5.25947642 42.07564621 3 46 C-0.51824511 48.34549674 -1.85775694 48.57991403 -6 48 C-8.875 46.1875 -8.875 46.1875 -11 43 C-11.41111401 39.2947699 -11.29247535 35.71118727 -11 32 C-11.73605469 32.05800781 -12.47210938 32.11601562 -13.23046875 32.17578125 C-21.16162295 32.54247926 -21.16162295 32.54247926 -25.1875 29.9375 C-27.46334187 26.24906662 -27.69758716 24.26303263 -27 20 C-25.35546875 17.80078125 -25.35546875 17.80078125 -23 16 C-19.984375 15.609375 -19.984375 15.609375 -16.75 15.75 C-15.67234375 15.78609375 -14.5946875 15.8221875 -13.484375 15.859375 C-12.25460938 15.92898438 -12.25460938 15.92898438 -11 16 C-11.04640625 15.18015625 -11.0928125 14.3603125 -11.140625 13.515625 C-11.17671875 12.43796875 -11.2128125 11.3603125 -11.25 10.25 C-11.29640625 9.18265625 -11.3428125 8.1153125 -11.390625 7.015625 C-11 4 -11 4 -9.203125 1.63671875 C-6.02703016 -0.72282688 -3.85839198 -0.482299 0 0 Z " fill="#FBFDFE" transform="translate(163,296)"/>
<path d="M0 0 C1.61622324 0.65865726 3.220509 1.34725767 4.8125 2.0625 C13.19364199 5.6228611 21.45919808 4.60932476 29.94140625 1.8515625 C32.24635433 0.97625478 32.24635433 0.97625478 35 -1 C39.38391211 -1.5682849 41.31875396 -1.46835665 45 1.0625 C47 4 47 4 47.125 7.5625 C45.54876095 12.37878599 43.35997836 13.78180165 38.94921875 16.05859375 C27.16854403 21.6132124 14.06839726 23.25208645 1.5 19.3125 C-10.67800633 14.64398734 -10.67800633 14.64398734 -13 10 C-13.35065643 6.21291051 -13.48039914 3.83547676 -11.5625 0.5 C-7.59365823 -1.82322445 -4.35332563 -1.10375658 0 0 Z " fill="#1066E5" transform="translate(201,213)"/>
<path d="M0 0 C1.02867187 0.4640625 2.05734375 0.928125 3.1171875 1.40625 C13.06326458 5.37337847 20.96411179 4.86108061 30.8125 0.87890625 C32.21938488 0.25110278 33.61422894 -0.40477072 34.9921875 -1.09375 C38.82833707 -1.44894903 41.13848384 -1.64099594 44.4296875 0.46875 C46.62240637 3.88939143 46.62226443 5.91576279 45.9921875 9.90625 C41.81024388 16.17916543 33.64746542 18.70269034 26.58984375 20.52734375 C13.06381524 22.50031332 1.08729396 20.59824888 -10.484375 13.15234375 C-12.0078125 11.90625 -12.0078125 11.90625 -14.0078125 8.90625 C-13.78988147 2.80418103 -13.78988147 2.80418103 -11.3203125 -0.03125 C-7.36401817 -1.84900685 -4.04138008 -1.46959276 0 0 Z " fill="#1066E5" transform="translate(278.0078125,213.09375)"/>
</svg>
